<svg xmlns="http://www.w3.org/2000/svg"  viewBox="0 0 50 50" width="100px" height="100px"><path d="M 22.5 4 C 16.75 4 12 8.75 12 14.5 C 12 14.699219 12.019531 14.816406 12.03125 15.003906 C 12.023438 15.003906 12.007813 15 12 15 C 7.570313 15 4 18.570313 4 23 C 4 27.429688 7.570313 31 12 31 L 13 31 C 13.359375 31.003906 13.695313 30.816406 13.878906 30.503906 C 14.058594 30.191406 14.058594 29.808594 13.878906 29.496094 C 13.695313 29.183594 13.359375 28.996094 13 29 L 12 29 C 8.628906 29 6 26.371094 6 23 C 6 19.628906 8.628906 17 12 17 C 12.398438 17 12.734375 17.03125 12.78125 17.046875 L 14.097656 17.488281 L 14.097656 16.097656 C 14.097656 15.464844 14 14.867188 14 14.5 C 14 9.851563 17.851563 6 22.5 6 C 26.8125 6 30.285156 9.132813 30.910156 13.15625 L 31.125 14.507813 L 32.347656 13.894531 C 33.429688 13.355469 34.679688 13 36 13 C 40.464844 13 44 16.535156 44 21 C 44 25.464844 40.464844 29 36 29 L 35 29 C 34.640625 28.996094 34.304688 29.183594 34.121094 29.496094 C 33.941406 29.808594 33.941406 30.191406 34.121094 30.503906 C 34.304688 30.816406 34.640625 31.003906 35 31 L 36 31 C 41.535156 31 46 26.535156 46 21 C 46 15.464844 41.535156 11 36 11 C 34.730469 11 33.574219 11.304688 32.496094 11.714844 C 31.269531 7.324219 27.355469 4 22.5 4 Z M 23 20 L 16 29 L 20 29 L 14.902344 37 L 26 27 L 21 27 L 28 20 Z M 29 27 L 22 36 L 26.097656 36 L 21 44 L 32.097656 34 L 27.097656 34 L 34.097656 27 Z"/></svg>