<svg xmlns="http://www.w3.org/2000/svg"  viewBox="0 0 50 50" width="100px" height="100px"><path d="M 22.5 5 C 16.710938 5 12 9.710938 12 15.5 C 12 15.671875 12.023438 15.832031 12.03125 16 C 12.019531 16 12.011719 16 12 16 C 7.59375 16 4 19.59375 4 24 C 4 27.953125 6.910156 31.238281 10.6875 31.875 C 10.582031 32.417969 10.941406 32.941406 11.484375 33.046875 C 12.027344 33.152344 12.550781 32.792969 12.65625 32.25 L 12.75 32 L 15.6875 32 C 15.6875 32.503906 16.0625 32.929688 16.5625 32.992188 C 17.0625 33.058594 17.53125 32.738281 17.65625 32.25 L 17.75 32 L 20.6875 32 C 20.6875 32.503906 21.0625 32.929688 21.5625 32.992188 C 22.0625 33.058594 22.53125 32.738281 22.65625 32.25 L 22.75 32 L 25.6875 32 C 25.6875 32.503906 26.0625 32.929688 26.5625 32.992188 C 27.0625 33.058594 27.53125 32.738281 27.65625 32.25 L 27.75 32 L 30.6875 32 C 30.6875 32.503906 31.0625 32.929688 31.5625 32.992188 C 32.0625 33.058594 32.53125 32.738281 32.65625 32.25 L 32.75 32 L 35.6875 32 C 35.6875 32.503906 36.0625 32.929688 36.5625 32.992188 C 37.0625 33.058594 37.53125 32.738281 37.65625 32.25 L 37.8125 31.8125 C 42.457031 30.953125 46 26.890625 46 22 C 46 16.488281 41.511719 12 36 12 C 34.746094 12 33.574219 12.296875 32.46875 12.71875 C 31.230469 8.300781 27.304688 5 22.5 5 Z M 22.5 7 C 26.75 7 30.234375 10.097656 30.875 14.15625 L 31.09375 15.53125 L 32.34375 14.90625 C 33.445313 14.335938 34.675781 14 36 14 C 40.429688 14 44 17.570313 44 22 C 44 26.429688 40.429688 30 36 30 L 32.3125 30 C 32.179688 29.960938 32.042969 29.953125 31.90625 29.96875 C 31.875 29.976563 31.84375 29.988281 31.8125 30 L 27.3125 30 C 27.179688 29.960938 27.042969 29.953125 26.90625 29.96875 C 26.875 29.976563 26.84375 29.988281 26.8125 30 L 22.3125 30 C 22.179688 29.960938 22.042969 29.953125 21.90625 29.96875 C 21.875 29.976563 21.84375 29.988281 21.8125 30 L 17.3125 30 C 17.179688 29.960938 17.042969 29.953125 16.90625 29.96875 C 16.875 29.976563 16.84375 29.988281 16.8125 30 L 12.3125 30 C 12.179688 29.960938 12.042969 29.953125 11.90625 29.96875 C 11.886719 29.976563 11.863281 29.988281 11.84375 30 C 8.589844 29.917969 6 27.273438 6 24 C 6 20.675781 8.675781 18 12 18 C 12.324219 18 12.632813 18.039063 12.96875 18.09375 L 14.375 18.3125 L 14.125 16.9375 C 14.042969 16.457031 14 15.976563 14 15.5 C 14 10.792969 17.792969 7 22.5 7 Z M 15.8125 33.90625 L 15 34.28125 L 14.84375 34.59375 L 14.40625 36.0625 L 14.53125 36.96875 L 15.34375 37.375 L 16.15625 36.96875 L 16.3125 36.65625 L 16.75 35.1875 L 16.59375 34.3125 Z M 25.8125 33.90625 L 25 34.28125 L 24.84375 34.59375 L 24.40625 36.0625 L 24.53125 36.96875 L 25.34375 37.375 L 26.15625 36.96875 L 26.3125 36.65625 L 26.75 35.1875 L 26.59375 34.3125 Z M 35.8125 33.90625 L 35 34.28125 L 34.84375 34.59375 L 34.40625 36.0625 L 34.53125 36.96875 L 35.34375 37.375 L 36.15625 36.96875 L 36.3125 36.65625 L 36.75 35.1875 L 36.59375 34.3125 Z M 10.34375 35.40625 L 9.53125 35.78125 L 9.375 36.09375 L 8.6875 38.3125 L 8.84375 39.1875 L 9.65625 39.59375 L 10.4375 39.21875 L 10.625 38.90625 L 11.28125 36.6875 L 11.15625 35.8125 Z M 20.34375 35.40625 L 19.53125 35.78125 L 19.375 36.09375 L 18.6875 38.3125 L 18.84375 39.1875 L 19.65625 39.59375 L 20.4375 39.21875 L 20.625 38.90625 L 21.28125 36.6875 L 21.15625 35.8125 Z M 30.34375 35.40625 L 29.53125 35.78125 L 29.375 36.09375 L 28.6875 38.3125 L 28.84375 39.1875 L 29.65625 39.59375 L 30.4375 39.21875 L 30.625 38.90625 L 31.28125 36.6875 L 31.15625 35.8125 Z M 14.34375 38.28125 C 14.300781 38.289063 14.257813 38.300781 14.21875 38.3125 C 13.867188 38.402344 13.589844 38.679688 13.5 39.03125 L 13.1875 39.96875 C 13.054688 40.316406 13.128906 40.707031 13.375 40.988281 C 13.621094 41.265625 14 41.382813 14.363281 41.292969 C 14.722656 41.207031 15.003906 40.921875 15.09375 40.5625 L 15.40625 39.59375 C 15.515625 39.269531 15.449219 38.910156 15.234375 38.644531 C 15.019531 38.378906 14.683594 38.242188 14.34375 38.28125 Z M 24.34375 38.28125 C 24.300781 38.289063 24.257813 38.300781 24.21875 38.3125 C 23.867188 38.402344 23.589844 38.679688 23.5 39.03125 L 23.1875 39.96875 C 23.054688 40.316406 23.128906 40.707031 23.375 40.988281 C 23.621094 41.265625 24 41.382813 24.363281 41.292969 C 24.722656 41.207031 25.003906 40.921875 25.09375 40.5625 L 25.40625 39.59375 C 25.515625 39.269531 25.449219 38.910156 25.234375 38.644531 C 25.019531 38.378906 24.683594 38.242188 24.34375 38.28125 Z M 34.34375 38.28125 C 34.300781 38.289063 34.257813 38.300781 34.21875 38.3125 C 33.867188 38.402344 33.589844 38.679688 33.5 39.03125 L 33.1875 39.96875 C 33.054688 40.316406 33.128906 40.707031 33.375 40.988281 C 33.621094 41.265625 34 41.382813 34.363281 41.292969 C 34.722656 41.207031 35.003906 40.921875 35.09375 40.5625 L 35.40625 39.59375 C 35.515625 39.269531 35.449219 38.910156 35.234375 38.644531 C 35.019531 38.378906 34.683594 38.242188 34.34375 38.28125 Z M 8.1875 42.03125 C 7.785156 42.078125 7.453125 42.363281 7.34375 42.75 L 7.03125 43.71875 C 6.875 44.253906 7.183594 44.8125 7.71875 44.96875 C 8.253906 45.125 8.8125 44.816406 8.96875 44.28125 L 9.25 43.34375 C 9.359375 43.019531 9.292969 42.660156 9.078125 42.394531 C 8.863281 42.128906 8.527344 41.992188 8.1875 42.03125 Z M 18.1875 42.03125 C 17.785156 42.078125 17.453125 42.363281 17.34375 42.75 L 17.03125 43.71875 C 16.875 44.253906 17.183594 44.8125 17.71875 44.96875 C 18.253906 45.125 18.8125 44.816406 18.96875 44.28125 L 19.25 43.34375 C 19.359375 43.019531 19.292969 42.660156 19.078125 42.394531 C 18.863281 42.128906 18.527344 41.992188 18.1875 42.03125 Z M 28.1875 42.03125 C 27.785156 42.078125 27.453125 42.363281 27.34375 42.75 L 27.03125 43.71875 C 26.875 44.253906 27.183594 44.8125 27.71875 44.96875 C 28.253906 45.125 28.8125 44.816406 28.96875 44.28125 L 29.25 43.34375 C 29.359375 43.019531 29.292969 42.660156 29.078125 42.394531 C 28.863281 42.128906 28.527344 41.992188 28.1875 42.03125 Z"/></svg>