<svg xmlns="http://www.w3.org/2000/svg"  viewBox="0 0 50 50" width="100px" height="100px"><path d="M 22.5 5 C 16.710938 5 12 9.710938 12 15.5 C 12 15.671875 12.023438 15.832031 12.03125 16 C 12.019531 16 12.011719 16 12 16 C 7.59375 16 4 19.59375 4 24 C 4 28.40625 7.59375 32 12 32 L 16.625 32 L 16.59375 32.125 C 16.460938 32.472656 16.535156 32.863281 16.78125 33.144531 C 17.027344 33.421875 17.40625 33.539063 17.769531 33.449219 C 18.128906 33.363281 18.410156 33.078125 18.5 32.71875 L 18.75 32 L 23.6875 32 C 23.6875 32.503906 24.0625 32.929688 24.5625 32.992188 C 25.0625 33.058594 25.53125 32.738281 25.65625 32.25 L 25.75 32 L 30.625 32 L 30.59375 32.125 C 30.460938 32.472656 30.535156 32.863281 30.78125 33.144531 C 31.027344 33.421875 31.40625 33.539063 31.769531 33.449219 C 32.128906 33.363281 32.410156 33.078125 32.5 32.71875 L 32.75 32 L 36 32 C 41.511719 32 46 27.511719 46 22 C 46 16.488281 41.511719 12 36 12 C 34.746094 12 33.574219 12.296875 32.46875 12.71875 C 31.230469 8.300781 27.304688 5 22.5 5 Z M 22.5 7 C 26.75 7 30.234375 10.097656 30.875 14.15625 L 31.09375 15.53125 L 32.34375 14.90625 C 33.445313 14.335938 34.675781 14 36 14 C 40.429688 14 44 17.570313 44 22 C 44 26.429688 40.429688 30 36 30 L 32.1875 30 C 32.0625 29.976563 31.9375 29.976563 31.8125 30 L 25.1875 30 C 25.0625 29.976563 24.9375 29.976563 24.8125 30 L 18.1875 30 C 18.0625 29.976563 17.9375 29.976563 17.8125 30 L 12 30 C 8.675781 30 6 27.324219 6 24 C 6 20.675781 8.675781 18 12 18 C 12.324219 18 12.632813 18.039063 12.96875 18.09375 L 14.375 18.3125 L 14.125 16.9375 C 14.042969 16.457031 14 15.976563 14 15.5 C 14 10.792969 17.792969 7 22.5 7 Z M 23.59375 34.59375 L 22.78125 35 L 22.625 35.3125 L 22.0625 37.125 L 22.21875 38 L 23 38.40625 L 23.8125 38.03125 L 23.96875 37.71875 L 24.53125 35.90625 L 24.40625 35 Z M 16.0625 36.03125 C 16.019531 36.039063 15.976563 36.050781 15.9375 36.0625 C 15.574219 36.144531 15.285156 36.421875 15.1875 36.78125 L 14.75 38.21875 C 14.601563 38.574219 14.667969 38.980469 14.921875 39.269531 C 15.175781 39.558594 15.570313 39.675781 15.941406 39.570313 C 16.3125 39.464844 16.589844 39.160156 16.65625 38.78125 L 17.09375 37.375 C 17.214844 37.050781 17.160156 36.691406 16.949219 36.417969 C 16.738281 36.144531 16.40625 36 16.0625 36.03125 Z M 30.0625 36.03125 C 30.019531 36.039063 29.976563 36.050781 29.9375 36.0625 C 29.574219 36.144531 29.285156 36.421875 29.1875 36.78125 L 28.75 38.21875 C 28.601563 38.574219 28.667969 38.980469 28.921875 39.269531 C 29.175781 39.558594 29.570313 39.675781 29.941406 39.570313 C 30.3125 39.464844 30.589844 39.160156 30.65625 38.78125 L 31.09375 37.375 C 31.214844 37.050781 31.160156 36.691406 30.949219 36.417969 C 30.738281 36.144531 30.40625 36 30.0625 36.03125 Z M 21.8125 40.03125 C 21.398438 40.066406 21.050781 40.351563 20.9375 40.75 L 20.65625 41.71875 C 20.523438 42.066406 20.597656 42.457031 20.84375 42.738281 C 21.089844 43.015625 21.46875 43.132813 21.832031 43.042969 C 22.191406 42.957031 22.472656 42.671875 22.5625 42.3125 L 22.875 41.34375 C 22.976563 41.035156 22.921875 40.699219 22.730469 40.4375 C 22.539063 40.175781 22.230469 40.023438 21.90625 40.03125 C 21.875 40.03125 21.84375 40.03125 21.8125 40.03125 Z"/></svg>