<svg xmlns="http://www.w3.org/2000/svg"  viewBox="0 0 50 50" width="100px" height="100px"><path d="M 22.5 6 C 16.714844 6 12 10.710938 12 16.5 C 12 16.671875 12.023438 16.832031 12.03125 17 C 12.019531 17 12.011719 17 12 17 C 7.59375 17 4 20.59375 4 25 C 4 29.40625 7.59375 33 12 33 L 36 33 C 41.511719 33 46 28.511719 46 23 C 46 17.488281 41.511719 13 36 13 C 34.746094 13 33.574219 13.296875 32.46875 13.71875 C 31.230469 9.296875 27.308594 6 22.5 6 Z M 22.5 8 C 26.75 8 30.234375 11.097656 30.875 15.15625 L 31.09375 16.53125 L 32.34375 15.90625 C 33.449219 15.335938 34.675781 15 36 15 C 40.429688 15 44 18.570313 44 23 C 44 27.429688 40.429688 31 36 31 L 12 31 C 8.675781 31 6 28.324219 6 25 C 6 21.675781 8.675781 19 12 19 C 12.324219 19 12.632813 19.039063 12.96875 19.09375 L 14.375 19.3125 L 14.125 17.9375 C 14.042969 17.457031 14 16.976563 14 16.5 C 14 11.792969 17.792969 8 22.5 8 Z M 13.0625 34.96875 C 13.03125 34.976563 13 34.988281 12.96875 35 C 12.675781 35.058594 12.421875 35.25 12.28125 35.515625 C 12.144531 35.785156 12.132813 36.097656 12.25 36.375 L 12.6875 37.46875 L 11.625 37.90625 C 11.257813 38.015625 10.988281 38.320313 10.921875 38.695313 C 10.859375 39.070313 11.011719 39.449219 11.320313 39.675781 C 11.628906 39.898438 12.039063 39.925781 12.375 39.75 L 13.46875 39.3125 L 13.90625 40.375 C 14.015625 40.742188 14.320313 41.011719 14.695313 41.078125 C 15.070313 41.140625 15.449219 40.988281 15.675781 40.679688 C 15.898438 40.371094 15.925781 39.960938 15.75 39.625 L 15.3125 38.53125 L 16.375 38.09375 C 16.84375 37.921875 17.113281 37.4375 17.011719 36.949219 C 16.910156 36.460938 16.464844 36.125 15.96875 36.15625 C 15.847656 36.167969 15.734375 36.199219 15.625 36.25 L 14.53125 36.6875 L 14.09375 35.625 C 13.949219 35.230469 13.574219 34.96875 13.15625 34.96875 C 13.125 34.96875 13.09375 34.96875 13.0625 34.96875 Z M 32.0625 36.96875 C 32.03125 36.976563 32 36.988281 31.96875 37 C 31.675781 37.058594 31.421875 37.25 31.28125 37.515625 C 31.144531 37.785156 31.132813 38.097656 31.25 38.375 L 31.6875 39.46875 L 30.625 39.90625 C 30.257813 40.015625 29.988281 40.320313 29.921875 40.695313 C 29.859375 41.070313 30.011719 41.449219 30.320313 41.675781 C 30.628906 41.898438 31.039063 41.925781 31.375 41.75 L 32.46875 41.3125 L 32.90625 42.375 C 33.015625 42.742188 33.320313 43.011719 33.695313 43.078125 C 34.070313 43.140625 34.449219 42.988281 34.675781 42.679688 C 34.898438 42.371094 34.925781 41.960938 34.75 41.625 L 34.3125 40.53125 L 35.375 40.09375 C 35.84375 39.921875 36.113281 39.4375 36.011719 38.949219 C 35.910156 38.460938 35.464844 38.125 34.96875 38.15625 C 34.9375 38.15625 34.90625 38.15625 34.875 38.15625 C 34.789063 38.175781 34.703125 38.207031 34.625 38.25 L 33.53125 38.6875 L 33.09375 37.625 C 32.949219 37.230469 32.574219 36.96875 32.15625 36.96875 C 32.125 36.96875 32.09375 36.96875 32.0625 36.96875 Z M 22.0625 41.96875 C 22.03125 41.976563 22 41.988281 21.96875 42 C 21.675781 42.058594 21.421875 42.25 21.28125 42.515625 C 21.144531 42.785156 21.132813 43.097656 21.25 43.375 L 21.6875 44.46875 L 20.625 44.90625 C 20.257813 45.015625 19.988281 45.320313 19.921875 45.695313 C 19.859375 46.070313 20.011719 46.449219 20.320313 46.675781 C 20.628906 46.898438 21.039063 46.925781 21.375 46.75 L 22.46875 46.3125 L 22.90625 47.375 C 23.015625 47.742188 23.320313 48.011719 23.695313 48.078125 C 24.070313 48.140625 24.449219 47.988281 24.675781 47.679688 C 24.898438 47.371094 24.925781 46.960938 24.75 46.625 L 24.3125 45.53125 L 25.375 45.09375 C 25.84375 44.921875 26.113281 44.4375 26.011719 43.949219 C 25.910156 43.460938 25.464844 43.125 24.96875 43.15625 C 24.847656 43.167969 24.734375 43.199219 24.625 43.25 L 23.53125 43.6875 L 23.09375 42.625 C 22.949219 42.230469 22.574219 41.96875 22.15625 41.96875 C 22.125 41.96875 22.09375 41.96875 22.0625 41.96875 Z"/></svg>