<svg xmlns="http://www.w3.org/2000/svg"  viewBox="0 0 50 50" width="100px" height="100px"><path d="M 22.5 5 C 16.714844 5 12 9.710938 12 15.5 C 12 15.671875 12.023438 15.832031 12.03125 16 C 12.019531 16 12.011719 16 12 16 C 7.59375 16 4 19.59375 4 24 C 4 28.40625 7.59375 32 12 32 L 18.625 32 L 18.59375 32.125 C 18.460938 32.472656 18.535156 32.863281 18.78125 33.144531 C 19.027344 33.421875 19.40625 33.539063 19.769531 33.449219 C 20.128906 33.363281 20.410156 33.078125 20.5 32.71875 L 20.75 32 L 24.6875 32 C 24.6875 32.503906 25.0625 32.929688 25.5625 32.992188 C 26.0625 33.058594 26.53125 32.738281 26.65625 32.25 L 26.75 32 L 36 32 C 41.511719 32 46 27.511719 46 22 C 46 16.488281 41.511719 12 36 12 C 34.746094 12 33.574219 12.296875 32.46875 12.71875 C 31.230469 8.296875 27.308594 5 22.5 5 Z M 22.5 7 C 26.75 7 30.234375 10.097656 30.875 14.15625 L 31.09375 15.53125 L 32.34375 14.90625 C 33.449219 14.335938 34.675781 14 36 14 C 40.429688 14 44 17.570313 44 22 C 44 26.429688 40.429688 30 36 30 L 26.1875 30 C 26.0625 29.976563 25.9375 29.976563 25.8125 30 L 20.1875 30 C 20.0625 29.976563 19.9375 29.976563 19.8125 30 L 12 30 C 8.675781 30 6 27.324219 6 24 C 6 20.675781 8.675781 18 12 18 C 12.324219 18 12.632813 18.039063 12.96875 18.09375 L 14.375 18.3125 L 14.125 16.9375 C 14.042969 16.457031 14 15.976563 14 15.5 C 14 10.792969 17.792969 7 22.5 7 Z M 24.59375 34.59375 L 23.78125 35 L 23.625 35.3125 L 23.0625 37.125 L 23.21875 38 L 24 38.40625 L 24.8125 38.03125 L 24.96875 37.71875 L 25.53125 35.90625 L 25.40625 35 Z M 18.0625 36.03125 C 18.019531 36.039063 17.976563 36.050781 17.9375 36.0625 C 17.574219 36.144531 17.285156 36.421875 17.1875 36.78125 L 16.75 38.21875 C 16.601563 38.574219 16.667969 38.980469 16.921875 39.269531 C 17.175781 39.558594 17.570313 39.675781 17.941406 39.570313 C 18.3125 39.464844 18.589844 39.160156 18.65625 38.78125 L 19.09375 37.375 C 19.214844 37.050781 19.160156 36.691406 18.949219 36.417969 C 18.738281 36.144531 18.40625 36 18.0625 36.03125 Z M 22.8125 40.03125 C 22.769531 40.039063 22.726563 40.050781 22.6875 40.0625 C 22.324219 40.144531 22.035156 40.421875 21.9375 40.78125 L 21.65625 41.71875 C 21.523438 42.066406 21.597656 42.457031 21.84375 42.738281 C 22.089844 43.015625 22.46875 43.132813 22.832031 43.042969 C 23.191406 42.957031 23.472656 42.671875 23.5625 42.3125 L 23.875 41.34375 C 23.984375 41.019531 23.917969 40.660156 23.703125 40.394531 C 23.488281 40.128906 23.152344 39.992188 22.8125 40.03125 Z"/></svg>