<svg xmlns="http://www.w3.org/2000/svg"  viewBox="0 0 50 50" width="100px" height="100px"><path d="M 36.984375 0.98632812 A 1.0001 1.0001 0 0 0 36 2 L 36 3 L 35.5 3 A 1.0001 1.0001 0 1 0 35.5 5 L 36 5 L 36 8.2675781 L 33.169922 6.6347656 L 33.421875 6.1992188 A 1.0001 1.0001 0 0 0 32.570312 4.6875 A 1.0001 1.0001 0 0 0 31.689453 5.1992188 L 31.4375 5.6347656 L 30.572266 5.1347656 A 1.0001 1.0001 0 0 0 29.998047 4.9941406 A 1.0001 1.0001 0 0 0 29.572266 6.8652344 L 30.439453 7.3652344 L 30.189453 7.7988281 A 1.0001607 1.0001607 0 1 0 31.921875 8.7988281 L 32.171875 8.3652344 L 35.001953 10 L 32.171875 11.632812 L 31.921875 11.199219 A 1.0001 1.0001 0 0 0 31.009766 10.6875 A 1.0001 1.0001 0 0 0 30.189453 12.199219 L 30.439453 12.632812 L 29.572266 13.134766 A 1.0001 1.0001 0 1 0 30.572266 14.865234 L 31.439453 14.365234 L 31.689453 14.798828 A 1.0001607 1.0001607 0 1 0 33.421875 13.798828 L 33.171875 13.365234 L 36 11.730469 L 36 15 L 35.5 15 A 1.0001 1.0001 0 1 0 35.5 17 L 36 17 L 36 18 A 1.0001 1.0001 0 1 0 38 18 L 38 17 L 38.5 17 A 1.0001 1.0001 0 1 0 38.5 15 L 38 15 L 38 11.730469 L 40.830078 13.365234 L 40.580078 13.798828 A 1.0001607 1.0001607 0 1 0 42.3125 14.798828 L 42.5625 14.365234 L 43.429688 14.865234 A 1.0001 1.0001 0 1 0 44.429688 13.134766 L 43.5625 12.634766 L 43.8125 12.199219 A 1.0001 1.0001 0 0 0 42.960938 10.6875 A 1.0001 1.0001 0 0 0 42.080078 11.199219 L 41.830078 11.634766 L 38.998047 10 L 41.830078 8.3652344 L 42.080078 8.7988281 A 1.0001607 1.0001607 0 1 0 43.8125 7.7988281 L 43.5625 7.3652344 L 44.429688 6.8652344 A 1.0001 1.0001 0 0 0 43.972656 4.9941406 A 1.0001 1.0001 0 0 0 43.429688 5.1347656 L 42.564453 5.6347656 L 42.3125 5.1992188 A 1.0001 1.0001 0 0 0 41.400391 4.6875 A 1.0001 1.0001 0 0 0 40.580078 6.1992188 L 40.832031 6.6347656 L 38 8.2695312 L 38 5 L 38.5 5 A 1.0001 1.0001 0 1 0 38.5 3 L 38 3 L 38 2 A 1.0001 1.0001 0 0 0 36.984375 0.98632812 z M 15.984375 4.9863281 A 1.0001 1.0001 0 0 0 15 6 L 15 11.259766 L 10.503906 8.6367188 A 1.0001 1.0001 0 0 0 9.9296875 8.4941406 A 1.0001 1.0001 0 0 0 9.4960938 10.363281 L 14.015625 13 L 9.4960938 15.636719 A 1.0001 1.0001 0 1 0 10.503906 17.363281 L 15 14.740234 L 15 20 A 1.0001 1.0001 0 1 0 17 20 L 17 14.740234 L 21.496094 17.363281 A 1.0001 1.0001 0 1 0 22.503906 15.636719 L 17.984375 13 L 22.503906 10.363281 A 1.0001 1.0001 0 0 0 22.039062 8.4921875 A 1.0001 1.0001 0 0 0 21.496094 8.6367188 L 17 11.259766 L 17 6 A 1.0001 1.0001 0 0 0 15.984375 4.9863281 z M 7.984375 24.236328 A 1.0001 1.0001 0 0 0 7 25.25 L 7 28.273438 L 4.4980469 26.839844 A 1.0001 1.0001 0 0 0 3.921875 26.701172 A 1.0001 1.0001 0 0 0 3.5019531 28.574219 L 5.9882812 30 L 3.5019531 31.425781 A 1.0001 1.0001 0 1 0 4.4980469 33.160156 L 7 31.726562 L 7 34.75 A 1.0001 1.0001 0 1 0 9 34.75 L 9 31.726562 L 11.501953 33.160156 A 1.0001 1.0001 0 1 0 12.498047 31.425781 L 10.011719 30 L 12.498047 28.574219 A 1.0001 1.0001 0 0 0 11.947266 26.701172 A 1.0001 1.0001 0 0 0 11.501953 26.839844 L 9 28.273438 L 9 25.25 A 1.0001 1.0001 0 0 0 7.984375 24.236328 z M 43.158203 32.986328 A 1.0001 1.0001 0 0 0 42.248047 34.382812 L 42.693359 35.458984 L 41.617188 35.904297 A 1.0001 1.0001 0 1 0 42.382812 37.751953 L 43.458984 37.306641 L 43.904297 38.382812 A 1.0001 1.0001 0 1 0 45.751953 37.617188 L 45.306641 36.541016 L 46.382812 36.095703 A 1.0001 1.0001 0 0 0 45.976562 34.167969 A 1.0001 1.0001 0 0 0 45.617188 34.248047 L 44.541016 34.693359 L 44.095703 33.617188 A 1.0001 1.0001 0 0 0 43.158203 32.986328 z M 18.984375 37.236328 A 1.0001 1.0001 0 0 0 18 38.25 L 18 41.273438 L 15.498047 39.839844 A 1.0001 1.0001 0 0 0 15.023438 39.699219 A 1.0001 1.0001 0 0 0 14.921875 39.701172 A 1.0001 1.0001 0 0 0 14.501953 41.574219 L 16.988281 43 L 14.501953 44.425781 A 1.0001 1.0001 0 1 0 15.498047 46.160156 L 18 44.726562 L 18 47.75 A 1.0001 1.0001 0 1 0 20 47.75 L 20 44.726562 L 22.501953 46.160156 A 1.0001 1.0001 0 1 0 23.498047 44.425781 L 21.011719 43 L 23.498047 41.574219 A 1.0001 1.0001 0 0 0 22.947266 39.701172 A 1.0001 1.0001 0 0 0 22.501953 39.839844 L 20 41.273438 L 20 38.25 A 1.0001 1.0001 0 0 0 18.984375 37.236328 z M 32.744141 38.986328 A 1.0001 1.0001 0 0 0 31.833984 40.382812 L 32.693359 42.458984 L 30.617188 43.318359 A 1.0001 1.0001 0 1 0 31.382812 45.166016 L 33.458984 44.306641 L 34.318359 46.382812 A 1.0001 1.0001 0 1 0 36.166016 45.617188 L 35.306641 43.541016 L 37.382812 42.681641 A 1.0001 1.0001 0 0 0 36.976562 40.753906 A 1.0001 1.0001 0 0 0 36.617188 40.833984 L 34.541016 41.693359 L 33.681641 39.617188 A 1.0001 1.0001 0 0 0 32.744141 38.986328 z"/></svg>