<svg xmlns="http://www.w3.org/2000/svg"  viewBox="0 0 50 50" width="100px" height="100px"><path d="M 22.5 5 C 16.710938 5 12 9.710938 12 15.5 C 12 15.671875 12.023438 15.832031 12.03125 16 C 12.019531 16 12.011719 16 12 16 C 7.59375 16 4 19.59375 4 24 C 4 26.605469 5.25 28.914063 7.1875 30.375 C 7.113281 30.480469 7.0625 30.59375 7.03125 30.71875 L 6.75 31.65625 C 6.617188 32.003906 6.691406 32.394531 6.9375 32.675781 C 7.183594 32.953125 7.5625 33.070313 7.925781 32.980469 C 8.285156 32.894531 8.566406 32.609375 8.65625 32.25 L 8.9375 31.375 C 9.492188 31.609375 10.078125 31.773438 10.6875 31.875 C 10.582031 32.417969 10.941406 32.941406 11.484375 33.046875 C 12.027344 33.152344 12.550781 32.792969 12.65625 32.25 L 12.75 32 L 14.6875 32 C 14.6875 32.503906 15.0625 32.929688 15.5625 32.992188 C 16.0625 33.058594 16.53125 32.738281 16.65625 32.25 L 16.75 32 L 18.6875 32 C 18.6875 32.503906 19.0625 32.929688 19.5625 32.992188 C 20.0625 33.058594 20.53125 32.738281 20.65625 32.25 L 20.75 32 L 22.6875 32 C 22.6875 32.503906 23.0625 32.929688 23.5625 32.992188 C 24.0625 33.058594 24.53125 32.738281 24.65625 32.25 L 24.75 32 L 26.6875 32 C 26.6875 32.503906 27.0625 32.929688 27.5625 32.992188 C 28.0625 33.058594 28.53125 32.738281 28.65625 32.25 L 28.75 32 L 30.6875 32 C 30.6875 32.503906 31.0625 32.929688 31.5625 32.992188 C 32.0625 33.058594 32.53125 32.738281 32.65625 32.25 L 32.75 32 L 34.6875 32 C 34.6875 32.503906 35.0625 32.929688 35.5625 32.992188 C 36.0625 33.058594 36.53125 32.738281 36.65625 32.25 L 36.75 31.96875 C 37.445313 31.917969 38.101563 31.78125 38.75 31.59375 L 38.75 31.65625 C 38.617188 32.003906 38.691406 32.394531 38.9375 32.675781 C 39.183594 32.953125 39.5625 33.070313 39.925781 32.980469 C 40.285156 32.894531 40.566406 32.609375 40.65625 32.25 L 40.96875 31.28125 C 41.035156 31.078125 41.035156 30.859375 40.96875 30.65625 C 43.96875 28.925781 46 25.699219 46 22 C 46 16.488281 41.511719 12 36 12 C 34.746094 12 33.574219 12.296875 32.46875 12.71875 C 31.230469 8.300781 27.304688 5 22.5 5 Z M 22.5 7 C 26.75 7 30.234375 10.097656 30.875 14.15625 L 31.09375 15.53125 L 32.34375 14.90625 C 33.445313 14.335938 34.675781 14 36 14 C 40.429688 14 44 17.570313 44 22 C 44 26.324219 40.59375 29.835938 36.3125 30 C 36.179688 29.960938 36.042969 29.953125 35.90625 29.96875 C 35.875 29.976563 35.84375 29.988281 35.8125 30 L 32.3125 30 C 32.179688 29.960938 32.042969 29.953125 31.90625 29.96875 C 31.875 29.976563 31.84375 29.988281 31.8125 30 L 28.3125 30 C 28.179688 29.960938 28.042969 29.953125 27.90625 29.96875 C 27.875 29.976563 27.84375 29.988281 27.8125 30 L 24.3125 30 C 24.179688 29.960938 24.042969 29.953125 23.90625 29.96875 C 23.875 29.976563 23.84375 29.988281 23.8125 30 L 20.3125 30 C 20.179688 29.960938 20.042969 29.953125 19.90625 29.96875 C 19.875 29.976563 19.84375 29.988281 19.8125 30 L 16.3125 30 C 16.179688 29.960938 16.042969 29.953125 15.90625 29.96875 C 15.875 29.976563 15.84375 29.988281 15.8125 30 L 12.3125 30 C 12.179688 29.960938 12.042969 29.953125 11.90625 29.96875 C 11.886719 29.976563 11.863281 29.988281 11.84375 30 C 8.589844 29.917969 6 27.273438 6 24 C 6 20.675781 8.675781 18 12 18 C 12.324219 18 12.632813 18.039063 12.96875 18.09375 L 14.375 18.3125 L 14.125 16.9375 C 14.042969 16.457031 14 15.976563 14 15.5 C 14 10.792969 17.792969 7 22.5 7 Z M 10.8125 33.90625 L 10 34.28125 L 9.84375 34.59375 L 9.40625 36.0625 L 9.53125 36.96875 L 10.34375 37.375 L 11.15625 36.96875 L 11.3125 36.65625 L 11.75 35.1875 L 11.59375 34.3125 Z M 18.8125 33.90625 L 18 34.28125 L 17.84375 34.59375 L 17.40625 36.0625 L 17.53125 36.96875 L 18.34375 37.375 L 19.15625 36.96875 L 19.3125 36.65625 L 19.75 35.1875 L 19.59375 34.3125 Z M 26.8125 33.90625 L 26 34.28125 L 25.84375 34.59375 L 25.40625 36.0625 L 25.53125 36.96875 L 26.34375 37.375 L 27.15625 36.96875 L 27.3125 36.65625 L 27.75 35.1875 L 27.59375 34.3125 Z M 34.8125 33.90625 L 34 34.28125 L 33.84375 34.59375 L 33.40625 36.0625 L 33.53125 36.96875 L 34.34375 37.375 L 35.15625 36.96875 L 35.3125 36.65625 L 35.75 35.1875 L 35.59375 34.3125 Z M 6.34375 35.40625 L 5.53125 35.78125 L 5.375 36.09375 L 4.6875 38.3125 L 4.84375 39.1875 L 5.65625 39.59375 L 6.4375 39.21875 L 6.625 38.90625 L 7.28125 36.6875 L 7.15625 35.8125 Z M 14.34375 35.40625 L 13.53125 35.78125 L 13.375 36.09375 L 12.6875 38.3125 L 12.84375 39.1875 L 13.65625 39.59375 L 14.4375 39.21875 L 14.625 38.90625 L 15.28125 36.6875 L 15.15625 35.8125 Z M 22.34375 35.40625 L 21.53125 35.78125 L 21.375 36.09375 L 20.6875 38.3125 L 20.84375 39.1875 L 21.65625 39.59375 L 22.4375 39.21875 L 22.625 38.90625 L 23.28125 36.6875 L 23.15625 35.8125 Z M 30.34375 35.40625 L 29.53125 35.78125 L 29.375 36.09375 L 28.6875 38.3125 L 28.84375 39.1875 L 29.65625 39.59375 L 30.4375 39.21875 L 30.625 38.90625 L 31.28125 36.6875 L 31.15625 35.8125 Z M 38.34375 35.40625 L 37.53125 35.78125 L 37.375 36.09375 L 36.6875 38.3125 L 36.84375 39.1875 L 37.65625 39.59375 L 38.4375 39.21875 L 38.625 38.90625 L 39.28125 36.6875 L 39.15625 35.8125 Z M 9.34375 38.28125 C 9.300781 38.289063 9.257813 38.300781 9.21875 38.3125 C 8.867188 38.402344 8.589844 38.679688 8.5 39.03125 L 8.1875 39.96875 C 8.054688 40.316406 8.128906 40.707031 8.375 40.988281 C 8.621094 41.265625 9 41.382813 9.363281 41.292969 C 9.722656 41.207031 10.003906 40.921875 10.09375 40.5625 L 10.40625 39.59375 C 10.515625 39.269531 10.449219 38.910156 10.234375 38.644531 C 10.019531 38.378906 9.683594 38.242188 9.34375 38.28125 Z M 17.34375 38.28125 C 17.300781 38.289063 17.257813 38.300781 17.21875 38.3125 C 16.867188 38.402344 16.589844 38.679688 16.5 39.03125 L 16.1875 39.96875 C 16.054688 40.316406 16.128906 40.707031 16.375 40.988281 C 16.621094 41.265625 17 41.382813 17.363281 41.292969 C 17.722656 41.207031 18.003906 40.921875 18.09375 40.5625 L 18.40625 39.59375 C 18.515625 39.269531 18.449219 38.910156 18.234375 38.644531 C 18.019531 38.378906 17.683594 38.242188 17.34375 38.28125 Z M 25.34375 38.28125 C 25.300781 38.289063 25.257813 38.300781 25.21875 38.3125 C 24.867188 38.402344 24.589844 38.679688 24.5 39.03125 L 24.1875 39.96875 C 24.054688 40.316406 24.128906 40.707031 24.375 40.988281 C 24.621094 41.265625 25 41.382813 25.363281 41.292969 C 25.722656 41.207031 26.003906 40.921875 26.09375 40.5625 L 26.40625 39.59375 C 26.515625 39.269531 26.449219 38.910156 26.234375 38.644531 C 26.019531 38.378906 25.683594 38.242188 25.34375 38.28125 Z M 33.34375 38.28125 C 33.300781 38.289063 33.257813 38.300781 33.21875 38.3125 C 32.867188 38.402344 32.589844 38.679688 32.5 39.03125 L 32.1875 39.96875 C 32.054688 40.316406 32.128906 40.707031 32.375 40.988281 C 32.621094 41.265625 33 41.382813 33.363281 41.292969 C 33.722656 41.207031 34.003906 40.921875 34.09375 40.5625 L 34.40625 39.59375 C 34.515625 39.269531 34.449219 38.910156 34.234375 38.644531 C 34.019531 38.378906 33.683594 38.242188 33.34375 38.28125 Z M 4.1875 42.03125 C 3.785156 42.078125 3.453125 42.363281 3.34375 42.75 L 3.03125 43.71875 C 2.875 44.253906 3.183594 44.8125 3.71875 44.96875 C 4.253906 45.125 4.8125 44.816406 4.96875 44.28125 L 5.25 43.34375 C 5.359375 43.019531 5.292969 42.660156 5.078125 42.394531 C 4.863281 42.128906 4.527344 41.992188 4.1875 42.03125 Z M 12.1875 42.03125 C 11.785156 42.078125 11.453125 42.363281 11.34375 42.75 L 11.03125 43.71875 C 10.875 44.253906 11.183594 44.8125 11.71875 44.96875 C 12.253906 45.125 12.8125 44.816406 12.96875 44.28125 L 13.25 43.34375 C 13.359375 43.019531 13.292969 42.660156 13.078125 42.394531 C 12.863281 42.128906 12.527344 41.992188 12.1875 42.03125 Z M 20.1875 42.03125 C 19.785156 42.078125 19.453125 42.363281 19.34375 42.75 L 19.03125 43.71875 C 18.875 44.253906 19.183594 44.8125 19.71875 44.96875 C 20.253906 45.125 20.8125 44.816406 20.96875 44.28125 L 21.25 43.34375 C 21.359375 43.019531 21.292969 42.660156 21.078125 42.394531 C 20.863281 42.128906 20.527344 41.992188 20.1875 42.03125 Z M 28.1875 42.03125 C 27.785156 42.078125 27.453125 42.363281 27.34375 42.75 L 27.03125 43.71875 C 26.875 44.253906 27.183594 44.8125 27.71875 44.96875 C 28.253906 45.125 28.8125 44.816406 28.96875 44.28125 L 29.25 43.34375 C 29.359375 43.019531 29.292969 42.660156 29.078125 42.394531 C 28.863281 42.128906 28.527344 41.992188 28.1875 42.03125 Z M 36.1875 42.03125 C 35.785156 42.078125 35.453125 42.363281 35.34375 42.75 L 35.03125 43.71875 C 34.875 44.253906 35.183594 44.8125 35.71875 44.96875 C 36.253906 45.125 36.8125 44.816406 36.96875 44.28125 L 37.25 43.34375 C 37.359375 43.019531 37.292969 42.660156 37.078125 42.394531 C 36.863281 42.128906 36.527344 41.992188 36.1875 42.03125 Z"/></svg>