<svg
   xmlns:svg="http://www.w3.org/2000/svg"
   xmlns="http://www.w3.org/2000/svg"
   version="1.1"
   width="508.81259"
   height="237.8457"
   id="svg4379">
  <defs
     id="defs4381" />
  <g
     transform="translate(-137.02228,-413.43933)"
     id="layer1">
    <path
       d="m 231.06661,414.44009 c -0.671,0.005 -1.42186,0.01 -2.15665,0.1538 -52.77625,12.90292 -90.75789,60.99 -90.88729,115.68874 -0.16662,65.91332 53.47254,119.84183 119.38585,120.00204 65.91331,0.16021 119.84183,-53.47254 120.00203,-119.38585 0.0296,-12.15117 -2.32917,-25.22662 -5.54566,-36.50896 -3.88197,-11.15295 -20.13077,-6.50692 -17.25318,5.39162 2.87758,9.594 4.80624,20.69765 4.77543,30.96329 -0.13556,55.98658 -45.99821,101.65821 -101.97862,101.51649 -55.98657,-0.12965 -101.498,-45.99205 -101.36244,-101.97863 0.11683,-46.46651 32.39285,-87.2518 77.33122,-98.28151 10.45587,-3.079 7.75412,-17.66198 -2.31069,-17.56127 z m 224.4454,73.63412 c -11.31316,0 -20.36492,2.551 -27.11214,7.85636 -6.76572,5.29919 -10.16706,12.29905 -10.16706,20.95029 0,3.52458 0.62851,6.85814 1.84856,10.013 1.1954,3.15487 3.04395,5.977 5.39162,8.47255 3.29659,3.51841 8.87922,7.40654 16.94509,11.70751 0.95508,0.48654 1.71299,0.83802 2.15664,1.07833 0.3638,0.19718 0.9366,0.51143 1.69451,0.92427 10.88183,5.91538 16.32891,11.36862 16.32891,16.32891 0,3.80802 -1.73148,7.05532 -5.08353,9.55087 -3.37053,2.51403 -7.68999,3.69711 -13.09393,3.69711 -3.198,0 -6.76571,-0.49911 -10.62919,-1.69451 -3.88813,-1.1954 -8.60811,-3.198 -14.32631,-6.00781 l -1.84855,17.40723 c 0.61002,0.24647 1.42339,0.53608 2.61878,0.92428 11.31932,3.44447 19.42216,5.08352 24.18527,5.08352 11.65822,0 21.03039,-2.97617 28.19046,-8.93468 7.16007,-5.96467 10.78324,-13.69779 10.78324,-23.10694 0,-6.43297 -1.85472,-11.86772 -5.54566,-16.48295 -3.7156,-4.59674 -10.63536,-9.47692 -20.79625,-14.63439 -0.59154,-0.29577 -1.41723,-0.69629 -2.46474,-1.23237 -10.88183,-5.47789 -16.3289,-10.51828 -16.3289,-14.94249 0,-3.59236 1.46652,-6.33438 4.46734,-8.3185 3.01314,-1.97795 7.25866,-2.92688 12.63179,-2.92688 3.69711,0 7.35109,0.37612 11.09133,1.23237 3.74641,0.85034 7.5914,2.14433 11.39943,3.85116 l 1.6945,-16.02081 c -1.04751,-0.26471 -2.7297,-0.61618 -4.92948,-1.23237 -8.38011,-2.3415 -14.70217,-3.54306 -19.10173,-3.54306 z m -169.60493,0.1538 c -28.95454,-0.0739 -52.60988,23.56907 -52.68382,52.52977 -0.0675,28.95454 23.57524,52.60988 52.52977,52.68382 28.95454,0.068 52.61604,-23.56908 52.68382,-52.52977 0.0675,-28.95454 -23.56908,-52.61604 -52.52977,-52.68382 z m 216.28094,2.0026 0,101.82457 20.18006,0 0,-44.36532 37.2792,0 0,-14.94249 -37.2792,0 0,-27.72832 38.97371,0 0,-14.78844 -59.15377,0 z m 71.01533,0 0,15.09653 50.06503,0 -51.60549,69.01272 0,17.71532 73.17197,0 0,-15.40462 -52.52977,0 52.06763,-69.62891 0,-16.79104 -71.16937,0 z"
       id="path1078"
       style="fill:#231f20;fill-opacity:1;fill-rule:nonzero;stroke:none" />
  </g>
</svg>
